<?xml version="1.0" encoding="UTF-8" standalone="no"?><!DOCTYPE svg PUBLIC "-//W3C//DTD SVG 1.1//EN" "http://www.w3.org/Graphics/SVG/1.1/DTD/svg11.dtd"><svg width="100%" height="100%" viewBox="0 0 546 546" version="1.1" xmlns="http://www.w3.org/2000/svg" xmlns:xlink="http://www.w3.org/1999/xlink" xml:space="preserve" xmlns:serif="http://www.serif.com/" style="fill-rule:evenodd;clip-rule:evenodd;stroke-linejoin:round;stroke-miterlimit:2;"><path d="M152.542,68.667c39.708,-19.209 78.583,-40.25 117.958,-60.167c86.375,43.375 174.417,89.204 261.375,131.37c0,0 -83.792,41.547 -121.667,62.297c-84.833,-46.417 -172.291,-88 -257.666,-133.5Z" style="fill:#d9ac80;fill-rule:nonzero;"/><path d="M130,80.208c7.333,-4.125 14.875,-8 22.542,-11.541c85.375,45.5 172.833,87.083 257.666,133.5c-7.791,4.375 -15.708,8.708 -24.25,11.458c-11.083,-7.083 -22.833,-13.083 -34.625,-18.833c-62.583,-31.834 -125.041,-63.875 -187.541,-95.917c-11.667,-5.5 -22.959,-11.667 -33.792,-18.667Z" style="fill:#f2d3ba;fill-rule:nonzero;"/><path d="M12.042,140.375c39.5,-19.667 79.083,-39.375 117.958,-60.167c10.833,7 22.125,13.167 33.792,18.667c62.5,32.042 124.958,64.083 187.541,95.917c11.792,5.75 23.542,11.75 34.625,18.833c-35.833,18.917 -72.333,36.542 -107.791,56.125c-4.834,3 -9.667,3 -14.459,-0.042c-82.25,-42.458 -164.5,-84.916 -247.083,-126.75l-4.583,-2.583Z" style="fill:#d9ac80;fill-rule:nonzero;"/><path d="M410.208,202.167c37.875,-20.75 121.561,-62.209 121.561,-62.209c-1.709,88.5 -0.269,179.917 -0.811,268.459c-86.541,44.708 -173.416,88.75 -260.125,133.25c0.167,-86.125 -0.166,-172.25 0.042,-258.334c-0.083,-5.5 4.5,-9.333 7.292,-13.583c35.458,-19.583 71.958,-37.208 107.791,-56.125c8.542,-2.75 16.459,-7.083 24.25,-11.458m24.875,25c-20.291,10.083 -41.041,19.416 -60.916,30.291c-10.417,5.667 -13.375,22.917 -2.542,29.709c8.042,5.625 17.667,0.916 25.333,-2.917c17.625,-9.083 35.667,-17.208 53.084,-26.667c9.666,-4.875 15.041,-18.916 7.75,-27.958c-5.667,-6.5 -15.584,-6.458 -22.709,-2.458Z" style="fill:#a67e4f;fill-rule:nonzero;"/><path d="M12.343,140.36c-0,-0 169.777,86.89 251.464,129.348c4.759,3.042 9.559,3.042 14.36,0.042c-2.773,4.25 -7.325,8.083 -7.242,13.583c-0.207,86.084 0.124,172.209 -0.041,258.334c-86.074,-44.459 -172.355,-88.542 -258.346,-133.209c-0.414,-88.625 0.922,-179.473 -0.195,-268.098Z" style="fill:#926e43;fill-rule:nonzero;"/><path d="M435.083,227.167c7.125,-4 17.042,-4.042 22.709,2.458c7.291,9.042 1.916,23.083 -7.75,27.958c-17.417,9.459 -35.459,17.584 -53.084,26.667c-7.666,3.833 -17.291,8.542 -25.333,2.917c-10.833,-6.792 -7.875,-24.042 2.542,-29.709c19.875,-10.875 40.625,-20.208 60.916,-30.291Z" style="fill:#643513;fill-rule:nonzero;"/></svg>